<svg width="24" height="24" viewBox="0 0 24 24" fill="none" xmlns="http://www.w3.org/2000/svg">
	<path
		d="M4.61536 0C4.61536 0 2.79782 2.00215 2.79782 3C2.79821 3.44515 2.96354 3.87437 3.26188 4.20476C3.56021 4.53515 3.9704 4.74327 4.4132 4.78892C4.20115 4.74475 4.01082 4.62882 3.87428 4.46068C3.73774 4.29253 3.66336 4.08245 3.66366 3.86585C3.66366 3.34615 4.61536 2.30769 4.61536 2.30769C4.61536 2.30769 5.56705 3.34523 5.56705 3.86585C5.56705 4.32092 5.24582 4.70123 4.81751 4.78892C5.26032 4.74327 5.6705 4.53515 5.96883 4.20476C6.26717 3.87437 6.4325 3.44515 6.43289 3C6.43289 2.00308 4.61536 0 4.61536 0ZM12 0C12 0 10.1824 2.00215 10.1824 3C10.1828 3.44515 10.3482 3.87437 10.6465 4.20476C10.9448 4.53515 11.355 4.74327 11.7978 4.78892C11.5858 4.74475 11.3954 4.62882 11.2589 4.46068C11.1224 4.29253 11.048 4.08245 11.0483 3.86585C11.0483 3.34615 12 2.30769 12 2.30769C12 2.30769 12.9517 3.34523 12.9517 3.86585C12.9517 4.32092 12.6304 4.70123 12.2021 4.78892C12.6449 4.74327 13.0551 4.53515 13.3534 4.20476C13.6518 3.87437 13.8171 3.44515 13.8175 3C13.8175 2.00308 12 0 12 0ZM19.3846 0C19.3846 0 17.567 2.00215 17.567 3C17.5674 3.44515 17.7328 3.87437 18.0311 4.20476C18.3294 4.53515 18.7396 4.74327 19.1824 4.78892C18.9704 4.74475 18.78 4.62882 18.6435 4.46068C18.507 4.29253 18.4326 4.08245 18.4329 3.86585C18.4329 3.34615 19.3846 2.30769 19.3846 2.30769C19.3846 2.30769 20.3363 3.34523 20.3363 3.86585C20.3363 4.32092 20.015 4.70123 19.5867 4.78892C20.0295 4.74327 20.4397 4.53515 20.7381 4.20476C21.0364 3.87437 21.2017 3.44515 21.2021 3C21.2021 2.00308 19.3846 0 19.3846 0ZM2.79782 5.25046C2.72271 5.23704 2.64555 5.24048 2.57193 5.26052C2.49831 5.28056 2.43006 5.31671 2.37211 5.36635C2.31417 5.41599 2.26798 5.47789 2.23688 5.54756C2.20577 5.61724 2.19054 5.69295 2.19228 5.76923C2.19228 6.10154 2.79782 6.70246 2.79782 7.75938V12.8945H6.43382V7.67354C6.43382 7.02831 7.03936 6.79477 7.03936 6.46154C7.03936 6.12923 7.02551 5.76923 6.00089 5.76923C4.47689 5.76923 2.79874 5.24954 2.79874 5.24954L2.79782 5.25046ZM10.1824 5.25046C10.1073 5.23704 10.0302 5.24048 9.95654 5.26052C9.88292 5.28056 9.81467 5.31671 9.75673 5.36635C9.69878 5.41599 9.65259 5.47789 9.62149 5.54756C9.59039 5.61724 9.57516 5.69295 9.57689 5.76923C9.57689 6.10154 10.1824 6.70246 10.1824 7.75938V12.8945H13.8175V7.67354C13.8175 7.02831 14.423 6.79477 14.423 6.46154C14.423 6.12923 14.4092 5.76923 13.3846 5.76923C11.8606 5.76923 10.1824 5.24954 10.1824 5.24954V5.25046ZM17.567 5.25046C17.4919 5.23704 17.4148 5.24048 17.3412 5.26052C17.2675 5.28056 17.1993 5.31671 17.1413 5.36635C17.0834 5.41599 17.0372 5.47789 17.0061 5.54756C16.975 5.61724 16.9598 5.69295 16.9615 5.76923C16.9615 6.10154 17.567 6.70246 17.567 7.75938V12.8945H21.2021V7.67354C21.2021 7.02831 21.8077 6.79477 21.8077 6.46154C21.8077 6.12923 21.7938 5.76923 20.7692 5.76923C19.2452 5.76923 17.567 5.24954 17.567 5.24954V5.25046ZM3.69228 13.8462C2.16366 13.8462 0.923048 15.0868 0.923048 16.6154V22.1538C0.894141 22.1525 0.865186 22.1525 0.836279 22.1538C0.715059 22.1595 0.596147 22.1891 0.486335 22.2407C0.376522 22.2924 0.277959 22.3651 0.196272 22.4549C0.0312975 22.6361 -0.0549199 22.8755 -0.0434136 23.1203C-0.0319073 23.3651 0.0763802 23.5953 0.257627 23.7603C0.438874 23.9253 0.678233 24.0115 0.923048 24H23.0769C23.3217 24 23.5565 23.9027 23.7296 23.7296C23.9027 23.5565 24 23.3217 24 23.0769C24 22.8321 23.9027 22.5973 23.7296 22.4242C23.5565 22.2511 23.3217 22.1538 23.0769 22.1538V16.6154C23.0769 15.0868 21.8363 13.8462 20.3077 13.8462H3.69228ZM4.61536 17.5385C4.61536 18.0281 4.80986 18.4977 5.15608 18.8439C5.5023 19.1901 5.97188 19.3846 6.46151 19.3846C6.95114 19.3846 7.42072 19.1901 7.76694 18.8439C8.11316 18.4977 8.30766 18.0281 8.30766 17.5385C8.30766 18.0281 8.50217 18.4977 8.84839 18.8439C9.19461 19.1901 9.66419 19.3846 10.1538 19.3846C10.6434 19.3846 11.113 19.1901 11.4592 18.8439C11.8055 18.4977 12 18.0281 12 17.5385C12 18.0281 12.1945 18.4977 12.5407 18.8439C12.8869 19.1901 13.3565 19.3846 13.8461 19.3846C14.3358 19.3846 14.8053 19.1901 15.1516 18.8439C15.4978 18.4977 15.6923 18.0281 15.6923 17.5385C15.6923 18.0281 15.8868 18.4977 16.233 18.8439C16.5792 19.1901 17.0488 19.3846 17.5384 19.3846C18.0281 19.3846 18.4976 19.1901 18.8439 18.8439C19.1901 18.4977 19.3846 18.0281 19.3846 17.5385C19.3846 18.0281 19.5791 18.4977 19.9253 18.8439C20.2715 19.1901 20.7411 19.3846 21.2307 19.3846V22.1538H2.7692V19.3846C3.25883 19.3846 3.72841 19.1901 4.07463 18.8439C4.42085 18.4977 4.61536 18.0281 4.61536 17.5385Z"
		fill="currentColor" />
</svg>
