<svg width="24" height="24" viewBox="0 0 24 24" fill="none" xmlns="http://www.w3.org/2000/svg" style="transform: rotate(180deg)">
	<path
		d="M21.7702 11.36L16.7702 5.36C16.6762 5.24712 16.5585 5.15634 16.4254 5.09412C16.2923 5.0319 16.1472 4.99976 16.0002 5H5.00024C4.20459 5 3.44153 5.31607 2.87892 5.87868C2.31631 6.44129 2.00024 7.20435 2.00024 8V16C2.00024 16.7957 2.31631 17.5587 2.87892 18.1213C3.44153 18.6839 4.20459 19 5.00024 19H16.0002C16.1472 19.0002 16.2923 18.9681 16.4254 18.9059C16.5585 18.8437 16.6762 18.7529 16.7702 18.64L21.7702 12.64C21.9199 12.4603 22.0019 12.2339 22.0019 12C22.0019 11.7661 21.9199 11.5397 21.7702 11.36ZM15.5302 17H5.00024C4.73503 17 4.48067 16.8946 4.29314 16.7071C4.1056 16.5196 4.00024 16.2652 4.00024 16V8C4.00024 7.73478 4.1056 7.48043 4.29314 7.29289C4.48067 7.10536 4.73503 7 5.00024 7H15.5302L19.7002 12L15.5302 17ZM12.7102 9.29C12.6173 9.19627 12.5067 9.12188 12.3848 9.07111C12.263 9.02034 12.1323 8.9942 12.0002 8.9942C11.8682 8.9942 11.7375 9.02034 11.6157 9.07111C11.4938 9.12188 11.3832 9.19627 11.2902 9.29L10.0002 10.59L8.71024 9.29C8.52194 9.1017 8.26655 8.99591 8.00024 8.99591C7.73394 8.99591 7.47855 9.1017 7.29024 9.29C7.10194 9.47831 6.99615 9.7337 6.99615 10C6.99615 10.1319 7.02212 10.2624 7.07258 10.3843C7.12304 10.5061 7.19701 10.6168 7.29024 10.71L8.59024 12L7.29024 13.29C7.19652 13.383 7.12212 13.4936 7.07135 13.6154C7.02058 13.7373 6.99445 13.868 6.99445 14C6.99445 14.132 7.02058 14.2627 7.07135 14.3846C7.12212 14.5064 7.19652 14.617 7.29024 14.71C7.38321 14.8037 7.49381 14.8781 7.61567 14.9289C7.73753 14.9797 7.86823 15.0058 8.00024 15.0058C8.13226 15.0058 8.26296 14.9797 8.38482 14.9289C8.50668 14.8781 8.61728 14.8037 8.71024 14.71L10.0002 13.41L11.2902 14.71C11.3832 14.8037 11.4938 14.8781 11.6157 14.9289C11.7375 14.9797 11.8682 15.0058 12.0002 15.0058C12.1323 15.0058 12.263 14.9797 12.3848 14.9289C12.5067 14.8781 12.6173 14.8037 12.7102 14.71C12.804 14.617 12.8784 14.5064 12.9291 14.3846C12.9799 14.2627 13.006 14.132 13.006 14C13.006 13.868 12.9799 13.7373 12.9291 13.6154C12.8784 13.4936 12.804 13.383 12.7102 13.29L11.4102 12L12.7102 10.71C12.804 10.617 12.8784 10.5064 12.9291 10.3846C12.9799 10.2627 13.006 10.132 13.006 10C13.006 9.86799 12.9799 9.73728 12.9291 9.61542C12.8784 9.49357 12.804 9.38296 12.7102 9.29Z"
		fill="currentColor" />
</svg>
