<svg width="24" height="24" viewBox="0 0 24 24" fill="none" xmlns="http://www.w3.org/2000/svg">
	<path d="M15.5 15H17V14H15.5V15ZM17 17H15.5V16H17V17ZM15.5 19H17V18H15.5V19Z" fill="currentColor" />
	<path fill-rule="evenodd" clip-rule="evenodd"
		d="M8.5 2L16.5 5V12H18.5C18.6326 12 18.7598 12.0527 18.8536 12.1464C18.9473 12.2402 19 12.3674 19 12.5V21H19.5C19.6326 21 19.7598 21.0527 19.8536 21.1464C19.9473 21.2402 20 21.3674 20 21.5C20 21.6326 19.9473 21.7598 19.8536 21.8536C19.7598 21.9473 19.6326 22 19.5 22H4.5C4.36739 22 4.24021 21.9473 4.14645 21.8536C4.05268 21.7598 4 21.6326 4 21.5C4 21.3674 4.05268 21.2402 4.14645 21.1464C4.24021 21.0527 4.36739 21 4.5 21H5V10.5C5 10.3674 5.05268 10.2402 5.14645 10.1464C5.24021 10.0527 5.36739 10 5.5 10H6.5V6.5H7.5V10H8.5V2ZM18 21H17V20H15.5V21H14.5V13H18V21ZM8.5 11H6V21H8.5V11ZM11 6.5H10V7.5H11V6.5ZM12 6.5H13V7.5H12V6.5ZM15 6.5H14V7.5H15V6.5ZM10 8.5H11V9.5H10V8.5ZM13 8.5H12V9.5H13V8.5ZM14 8.5H15V9.5H14V8.5ZM11 10.5H10V11.5H11V10.5ZM12 10.5H13V11.5H12V10.5ZM15 10.5H14V11.5H15V10.5ZM10 12.5H11V13.5H10V12.5ZM13 12.5H12V13.5H13V12.5ZM11 14.5H10V15.5H11V14.5ZM12 14.5H13V15.5H12V14.5ZM10 16.5H11V17.5H10V16.5ZM13 16.5H12V17.5H13V16.5ZM11 18.5H10V19.5H11V18.5ZM12 18.5H13V19.5H12V18.5Z"
		fill="currentColor" />
</svg>
