<svg width="24" height="24" viewBox="0 0 24 24" fill="none" xmlns="http://www.w3.org/2000/svg">
	<path
		d="M21.2967 6.71564H2.70301C2.07543 6.71564 1.56668 7.22439 1.56668 7.85197V18.481C1.56668 19.1086 2.07543 19.6173 2.70301 19.6173H21.2967C21.9243 19.6173 22.433 19.1086 22.433 18.481V7.85197C22.433 7.22439 21.9243 6.71564 21.2967 6.71564Z"
		fill="#D0CFCE" />
	<path
		d="M12.9473 3.53302H10.9843C10.6977 3.53302 10.4653 3.76538 10.4653 4.05202V8.23835C10.4653 8.52499 10.6977 8.75735 10.9843 8.75735H12.9473C13.234 8.75735 13.4663 8.52499 13.4663 8.23835V4.05202C13.4663 3.76538 13.234 3.53302 12.9473 3.53302Z"
		fill="#9B9B9A" />
	<path
		d="M5.801 10.2167H18.369C18.6206 10.2167 18.8697 10.2662 19.1022 10.3625C19.3346 10.4588 19.5458 10.6 19.7237 10.7779C19.9016 10.9558 20.0427 11.167 20.1389 11.3995C20.2352 11.6319 20.2847 11.8811 20.2847 12.1327V16.9007C20.2846 17.1587 20.182 17.4061 19.9996 17.5886C19.8171 17.771 19.5697 17.8736 19.3117 17.8737H4.261C4.00303 17.8735 3.75568 17.7709 3.57329 17.5885C3.39091 17.406 3.28842 17.1586 3.28833 16.9007V12.73C3.28851 12.0637 3.55329 11.4247 4.02447 10.9535C4.49565 10.4823 5.13465 10.2175 5.801 10.2173"
		fill="#9B9B9A" />
	<path
		d="M18.852 10.4557H4.79734C4.26015 10.4557 3.82468 10.8912 3.82468 11.4284V16.06C3.82468 16.5972 4.26015 17.0327 4.79734 17.0327H18.852C19.3892 17.0327 19.8247 16.5972 19.8247 16.06V11.4284C19.8247 10.8912 19.3892 10.4557 18.852 10.4557Z"
		fill="white" />
	<path
		d="M13.5007 6.88232H21.2967C21.5981 6.88232 21.8873 7.00208 22.1004 7.21525C22.3136 7.42841 22.4333 7.71753 22.4333 8.01899V18.6477C22.4333 18.9491 22.3136 19.2382 22.1004 19.4514C21.8873 19.6646 21.5981 19.7843 21.2967 19.7843H2.70335C2.40188 19.7843 2.11277 19.6646 1.8996 19.4514C1.68644 19.2382 1.56668 18.9491 1.56668 18.6477V8.01899C1.56668 7.71753 1.68644 7.42841 1.8996 7.21525C2.11277 7.00208 2.40188 6.88232 2.70335 6.88232H10.4653"
		stroke="currentColor" stroke-width="0.666667" stroke-linecap="round" stroke-linejoin="round" />
	<path
		d="M18.852 10.4557H4.79734C4.26015 10.4557 3.82468 10.8912 3.82468 11.4284V16.06C3.82468 16.5972 4.26015 17.0327 4.79734 17.0327H18.852C19.3892 17.0327 19.8247 16.5972 19.8247 16.06V11.4284C19.8247 10.8912 19.3892 10.4557 18.852 10.4557Z"
		stroke="currentColor" stroke-width="0.666667" stroke-linecap="round" stroke-linejoin="round" />
	<path
		d="M17.4654 12.7137H16.132V15.047H17.4654M16.132 13.8804H17.132M11.4654 15.047L10.4654 12.7137L9.46536 15.047M9.7987 14.4884H11.132M6.46536 15.047V12.7137L8.13203 15.047V12.7137M14.7987 15.047V12.7137L13.7987 14.7137L12.7987 12.7137V15.047"
		stroke="black" stroke-width="0.666667" stroke-linecap="round" stroke-linejoin="round" />
	<path
		d="M12.9817 3.41235H11.0187C10.7321 3.41235 10.4997 3.64472 10.4997 3.93135V8.11769C10.4997 8.40432 10.7321 8.63669 11.0187 8.63669H12.9817C13.2683 8.63669 13.5007 8.40432 13.5007 8.11769V3.93135C13.5007 3.64472 13.2683 3.41235 12.9817 3.41235Z"
		stroke="currentColor" stroke-width="0.666667" stroke-miterlimit="10" />
</svg>
