<svg width="24" height="24" viewBox="0 0 24 24" fill="none" xmlns="http://www.w3.org/2000/svg">
	<path opacity="0.5"
		d="M2 12C2 8.229 2 6.343 3.172 5.172C4.344 4.001 6.229 4 10 4H14C17.771 4 19.657 4 20.828 5.172C21.999 6.344 22 8.229 22 12C22 15.771 22 17.657 20.828 18.828C19.656 19.999 17.771 20 14 20H10C6.229 20 4.343 20 3.172 18.828C2.001 17.656 2 15.771 2 12Z"
		stroke="currentColor" stroke-width="1.5" />
	<path
		d="M12 10V14M10.268 11L13.732 13M13.732 11L10.267 13M6.732 10V14M5 11L8.464 13M8.464 11L5 13M17.268 10V14M15.536 11L19 13M19 11L15.535 13"
		stroke="currentColor" stroke-width="1.5" stroke-linecap="round" />
</svg>
